<svg preserveAspectRatio="none" width="100%" height="100%" overflow="visible" style="display: block;" viewBox="0 0 455 179" fill="none" xmlns="http://www.w3.org/2000/svg">
<path id="block" d="M447.992 35.8006H138.152L120.633 6.55565C120.633 6.55565 117.441 1.05109 116.628 0.504965C115.815 -0.0411658 103.113 0.000741879 103.113 0.000741879L6.0066 0.504948C6.0066 0.504948 2.0022 0.504948 1.0011 2.52184C0 4.53874 0 7.56407 0 7.56407V171.941C0 171.941 0.50055 174.462 1.50165 175.975C2.50275 177.487 6.0066 179 6.0066 179C6.0066 179 275.386 177.487 447.992 177.487C451.12 177.487 453.498 175.975 453.999 174.966C454.499 173.958 455 169.42 455 169.42V43.3639C455 43.3639 455 37.8175 453.498 36.809C451.997 35.8006 447.992 35.8006 447.992 35.8006Z" fill="var(--fill-0, white)"/>
</svg>
